<mxfile host="app.diagrams.net" modified="2024-01-03T02:04:44.415Z" agent="Mozilla/5.0 (Windows NT 10.0; WOW64) AppleWebKit/537.36 (KHTML, like Gecko) Chrome/86.0.4240.198 Safari/537.36" etag="cYZKYI1G8qymhMG6UM0w" version="22.1.16" type="github">
  <diagram id="OQvd1GPr68F0-bzcyRqO" name="Page-1">
    <mxGraphModel dx="1434" dy="756" grid="1" gridSize="10" guides="1" tooltips="1" connect="1" arrows="1" fold="1" page="1" pageScale="1" pageWidth="827" pageHeight="1169" math="0" shadow="0">
      <root>
        <mxCell id="0" />
        <mxCell id="1" parent="0" />
        <mxCell id="37Pm9QDbZJrlRPkNdoVS-1" value="是" style="edgeStyle=orthogonalEdgeStyle;rounded=0;orthogonalLoop=1;jettySize=auto;html=1;" parent="1" source="37Pm9QDbZJrlRPkNdoVS-3" target="37Pm9QDbZJrlRPkNdoVS-10" edge="1">
          <mxGeometry relative="1" as="geometry" />
        </mxCell>
        <mxCell id="37Pm9QDbZJrlRPkNdoVS-2" value="" style="edgeStyle=orthogonalEdgeStyle;rounded=0;orthogonalLoop=1;jettySize=auto;html=1;" parent="1" source="37Pm9QDbZJrlRPkNdoVS-3" target="37Pm9QDbZJrlRPkNdoVS-14" edge="1">
          <mxGeometry relative="1" as="geometry" />
        </mxCell>
        <mxCell id="37Pm9QDbZJrlRPkNdoVS-3" value="是否携带token" style="rhombus;whiteSpace=wrap;html=1;" parent="1" vertex="1">
          <mxGeometry x="360" y="170" width="130" height="40" as="geometry" />
        </mxCell>
        <mxCell id="37Pm9QDbZJrlRPkNdoVS-4" value="" style="edgeStyle=orthogonalEdgeStyle;rounded=0;orthogonalLoop=1;jettySize=auto;html=1;" parent="1" source="37Pm9QDbZJrlRPkNdoVS-5" target="37Pm9QDbZJrlRPkNdoVS-8" edge="1">
          <mxGeometry relative="1" as="geometry" />
        </mxCell>
        <mxCell id="37Pm9QDbZJrlRPkNdoVS-5" value="发起请求" style="ellipse;whiteSpace=wrap;html=1;fillColor=#ffe6cc;strokeColor=#d79b00;" parent="1" vertex="1">
          <mxGeometry x="380" y="40" width="90" height="50" as="geometry" />
        </mxCell>
        <mxCell id="37Pm9QDbZJrlRPkNdoVS-6" value="请求禁止(403)" style="ellipse;whiteSpace=wrap;html=1;fillColor=#e51400;strokeColor=#B20000;fontColor=#ffffff;" parent="1" vertex="1">
          <mxGeometry x="140" y="560" width="90" height="50" as="geometry" />
        </mxCell>
        <mxCell id="37Pm9QDbZJrlRPkNdoVS-7" value="" style="edgeStyle=orthogonalEdgeStyle;rounded=0;orthogonalLoop=1;jettySize=auto;html=1;" parent="1" source="37Pm9QDbZJrlRPkNdoVS-8" target="37Pm9QDbZJrlRPkNdoVS-3" edge="1">
          <mxGeometry relative="1" as="geometry" />
        </mxCell>
        <mxCell id="37Pm9QDbZJrlRPkNdoVS-8" value="进入TokenFilter" style="rounded=0;whiteSpace=wrap;html=1;fillColor=#e1d5e7;strokeColor=#9673a6;" parent="1" vertex="1">
          <mxGeometry x="365" y="118" width="120" height="30" as="geometry" />
        </mxCell>
        <mxCell id="37Pm9QDbZJrlRPkNdoVS-9" style="edgeStyle=orthogonalEdgeStyle;rounded=0;orthogonalLoop=1;jettySize=auto;html=1;entryX=0.5;entryY=0;entryDx=0;entryDy=0;" parent="1" source="37Pm9QDbZJrlRPkNdoVS-10" target="37Pm9QDbZJrlRPkNdoVS-22" edge="1">
          <mxGeometry relative="1" as="geometry" />
        </mxCell>
        <mxCell id="37Pm9QDbZJrlRPkNdoVS-10" value="进入AuthFilter" style="rounded=0;whiteSpace=wrap;html=1;fillColor=#e1d5e7;strokeColor=#9673a6;" parent="1" vertex="1">
          <mxGeometry x="365" y="250" width="120" height="30" as="geometry" />
        </mxCell>
        <mxCell id="37Pm9QDbZJrlRPkNdoVS-11" value="" style="edgeStyle=orthogonalEdgeStyle;rounded=0;orthogonalLoop=1;jettySize=auto;html=1;" parent="1" source="37Pm9QDbZJrlRPkNdoVS-14" edge="1">
          <mxGeometry relative="1" as="geometry">
            <mxPoint x="755" y="190" as="targetPoint" />
          </mxGeometry>
        </mxCell>
        <mxCell id="37Pm9QDbZJrlRPkNdoVS-12" value="是" style="edgeLabel;html=1;align=center;verticalAlign=middle;resizable=0;points=[];" parent="37Pm9QDbZJrlRPkNdoVS-11" vertex="1" connectable="0">
          <mxGeometry x="-0.2118" y="1" relative="1" as="geometry">
            <mxPoint as="offset" />
          </mxGeometry>
        </mxCell>
        <mxCell id="37Pm9QDbZJrlRPkNdoVS-13" value="否" style="edgeStyle=orthogonalEdgeStyle;rounded=0;orthogonalLoop=1;jettySize=auto;html=1;" parent="1" source="37Pm9QDbZJrlRPkNdoVS-14" edge="1">
          <mxGeometry relative="1" as="geometry">
            <mxPoint x="606" y="250" as="targetPoint" />
          </mxGeometry>
        </mxCell>
        <mxCell id="37Pm9QDbZJrlRPkNdoVS-14" value="是否白名单" style="rhombus;whiteSpace=wrap;html=1;" parent="1" vertex="1">
          <mxGeometry x="540" y="170" width="130" height="40" as="geometry" />
        </mxCell>
        <mxCell id="37Pm9QDbZJrlRPkNdoVS-15" value="请求通过" style="ellipse;whiteSpace=wrap;html=1;fillColor=#d5e8d4;strokeColor=#82b366;" parent="1" vertex="1">
          <mxGeometry x="750" y="165" width="90" height="50" as="geometry" />
        </mxCell>
        <mxCell id="37Pm9QDbZJrlRPkNdoVS-16" value="是" style="edgeStyle=orthogonalEdgeStyle;rounded=0;orthogonalLoop=1;jettySize=auto;html=1;" parent="1" target="37Pm9QDbZJrlRPkNdoVS-10" edge="1">
          <mxGeometry relative="1" as="geometry">
            <mxPoint x="546" y="265" as="sourcePoint" />
          </mxGeometry>
        </mxCell>
        <mxCell id="37Pm9QDbZJrlRPkNdoVS-17" style="edgeStyle=orthogonalEdgeStyle;rounded=0;orthogonalLoop=1;jettySize=auto;html=1;entryX=0.5;entryY=1;entryDx=0;entryDy=0;" parent="1" target="37Pm9QDbZJrlRPkNdoVS-15" edge="1">
          <mxGeometry relative="1" as="geometry">
            <mxPoint x="666" y="265" as="sourcePoint" />
            <mxPoint x="800.0000000000002" y="235" as="targetPoint" />
          </mxGeometry>
        </mxCell>
        <mxCell id="37Pm9QDbZJrlRPkNdoVS-18" value="否" style="edgeLabel;html=1;align=center;verticalAlign=middle;resizable=0;points=[];" parent="37Pm9QDbZJrlRPkNdoVS-17" vertex="1" connectable="0">
          <mxGeometry x="-0.5531" y="1" relative="1" as="geometry">
            <mxPoint y="1" as="offset" />
          </mxGeometry>
        </mxCell>
        <mxCell id="37Pm9QDbZJrlRPkNdoVS-19" value="" style="edgeStyle=orthogonalEdgeStyle;rounded=0;orthogonalLoop=1;jettySize=auto;html=1;" parent="1" source="37Pm9QDbZJrlRPkNdoVS-22" target="37Pm9QDbZJrlRPkNdoVS-25" edge="1">
          <mxGeometry relative="1" as="geometry" />
        </mxCell>
        <mxCell id="37Pm9QDbZJrlRPkNdoVS-20" style="edgeStyle=orthogonalEdgeStyle;rounded=0;orthogonalLoop=1;jettySize=auto;html=1;entryX=0;entryY=0.5;entryDx=0;entryDy=0;fontColor=#006633;" parent="1" source="37Pm9QDbZJrlRPkNdoVS-22" target="37Pm9QDbZJrlRPkNdoVS-51" edge="1">
          <mxGeometry relative="1" as="geometry">
            <Array as="points">
              <mxPoint x="110" y="320" />
              <mxPoint x="110" y="685" />
            </Array>
          </mxGeometry>
        </mxCell>
        <mxCell id="37Pm9QDbZJrlRPkNdoVS-21" value="无缓存" style="edgeLabel;html=1;align=center;verticalAlign=middle;resizable=0;points=[];fontColor=#006633;" parent="37Pm9QDbZJrlRPkNdoVS-20" vertex="1" connectable="0">
          <mxGeometry x="-0.792" relative="1" as="geometry">
            <mxPoint as="offset" />
          </mxGeometry>
        </mxCell>
        <mxCell id="37Pm9QDbZJrlRPkNdoVS-22" value="查询接口redis缓存" style="rounded=0;whiteSpace=wrap;html=1;fillColor=#647687;strokeColor=#314354;fontColor=#ffffff;" parent="1" vertex="1">
          <mxGeometry x="365" y="306" width="120" height="30" as="geometry" />
        </mxCell>
        <mxCell id="37Pm9QDbZJrlRPkNdoVS-23" value="是否开启权限校验" style="rhombus;whiteSpace=wrap;html=1;fillColor=#f0a30a;fontColor=#000000;strokeColor=#BD7000;" parent="1" vertex="1">
          <mxGeometry x="546" y="245" width="130" height="40" as="geometry" />
        </mxCell>
        <mxCell id="37Pm9QDbZJrlRPkNdoVS-24" value="" style="edgeStyle=orthogonalEdgeStyle;rounded=0;orthogonalLoop=1;jettySize=auto;html=1;" parent="1" source="37Pm9QDbZJrlRPkNdoVS-25" target="37Pm9QDbZJrlRPkNdoVS-28" edge="1">
          <mxGeometry relative="1" as="geometry" />
        </mxCell>
        <mxCell id="37Pm9QDbZJrlRPkNdoVS-25" value="ant路径匹配" style="rounded=0;whiteSpace=wrap;html=1;fillColor=#647687;strokeColor=#314354;fontColor=#ffffff;" parent="1" vertex="1">
          <mxGeometry x="365" y="360" width="120" height="30" as="geometry" />
        </mxCell>
        <mxCell id="37Pm9QDbZJrlRPkNdoVS-26" value="否" style="edgeStyle=orthogonalEdgeStyle;rounded=0;orthogonalLoop=1;jettySize=auto;html=1;" parent="1" source="37Pm9QDbZJrlRPkNdoVS-28" target="37Pm9QDbZJrlRPkNdoVS-33" edge="1">
          <mxGeometry relative="1" as="geometry" />
        </mxCell>
        <mxCell id="37Pm9QDbZJrlRPkNdoVS-27" value="是" style="edgeStyle=orthogonalEdgeStyle;rounded=0;orthogonalLoop=1;jettySize=auto;html=1;entryX=1;entryY=0.5;entryDx=0;entryDy=0;fontColor=#006633;" parent="1" source="37Pm9QDbZJrlRPkNdoVS-28" edge="1">
          <mxGeometry relative="1" as="geometry">
            <Array as="points">
              <mxPoint x="605" y="440" />
            </Array>
            <mxPoint x="485" y="440" as="targetPoint" />
          </mxGeometry>
        </mxCell>
        <mxCell id="37Pm9QDbZJrlRPkNdoVS-28" value="是否匹配到" style="rhombus;whiteSpace=wrap;html=1;" parent="1" vertex="1">
          <mxGeometry x="540" y="355" width="130" height="40" as="geometry" />
        </mxCell>
        <mxCell id="37Pm9QDbZJrlRPkNdoVS-29" style="edgeStyle=orthogonalEdgeStyle;rounded=0;orthogonalLoop=1;jettySize=auto;html=1;exitX=1;exitY=0.5;exitDx=0;exitDy=0;entryX=1;entryY=0.5;entryDx=0;entryDy=0;" parent="1" source="37Pm9QDbZJrlRPkNdoVS-33" target="37Pm9QDbZJrlRPkNdoVS-15" edge="1">
          <mxGeometry relative="1" as="geometry" />
        </mxCell>
        <mxCell id="37Pm9QDbZJrlRPkNdoVS-30" value="否" style="edgeLabel;html=1;align=center;verticalAlign=middle;resizable=0;points=[];" parent="37Pm9QDbZJrlRPkNdoVS-29" vertex="1" connectable="0">
          <mxGeometry x="-0.2919" y="3" relative="1" as="geometry">
            <mxPoint as="offset" />
          </mxGeometry>
        </mxCell>
        <mxCell id="37Pm9QDbZJrlRPkNdoVS-31" style="edgeStyle=orthogonalEdgeStyle;rounded=0;orthogonalLoop=1;jettySize=auto;html=1;" parent="1" source="37Pm9QDbZJrlRPkNdoVS-33" target="37Pm9QDbZJrlRPkNdoVS-39" edge="1">
          <mxGeometry relative="1" as="geometry" />
        </mxCell>
        <mxCell id="37Pm9QDbZJrlRPkNdoVS-32" value="是" style="edgeLabel;html=1;align=center;verticalAlign=middle;resizable=0;points=[];" parent="37Pm9QDbZJrlRPkNdoVS-31" vertex="1" connectable="0">
          <mxGeometry x="-0.2343" y="1" relative="1" as="geometry">
            <mxPoint as="offset" />
          </mxGeometry>
        </mxCell>
        <mxCell id="37Pm9QDbZJrlRPkNdoVS-33" value="是否开启全量拦截" style="rhombus;whiteSpace=wrap;html=1;fillColor=#fa6800;fontColor=#000000;strokeColor=#C73500;" parent="1" vertex="1">
          <mxGeometry x="710" y="355" width="130" height="40" as="geometry" />
        </mxCell>
        <mxCell id="37Pm9QDbZJrlRPkNdoVS-34" value="&lt;span style=&quot;font-size: 12px; background-color: rgb(248, 249, 250);&quot;&gt;accessType&lt;/span&gt;=1" style="edgeStyle=orthogonalEdgeStyle;rounded=0;orthogonalLoop=1;jettySize=auto;html=1;entryX=1;entryY=0.5;entryDx=0;entryDy=0;" parent="1" target="37Pm9QDbZJrlRPkNdoVS-40" edge="1">
          <mxGeometry x="0.262" y="-10" relative="1" as="geometry">
            <mxPoint x="365" y="440" as="sourcePoint" />
            <mxPoint as="offset" />
          </mxGeometry>
        </mxCell>
        <mxCell id="37Pm9QDbZJrlRPkNdoVS-37" value="" style="edgeStyle=orthogonalEdgeStyle;rounded=0;orthogonalLoop=1;jettySize=auto;html=1;fontColor=#006633;" parent="1" target="37Pm9QDbZJrlRPkNdoVS-46" edge="1">
          <mxGeometry relative="1" as="geometry">
            <Array as="points">
              <mxPoint x="450" y="470" />
              <mxPoint x="450" y="470" />
            </Array>
            <mxPoint x="450" y="455" as="sourcePoint" />
          </mxGeometry>
        </mxCell>
        <mxCell id="37Pm9QDbZJrlRPkNdoVS-39" value="请求禁止(403)" style="ellipse;whiteSpace=wrap;html=1;fillColor=#e51400;strokeColor=#B20000;fontColor=#ffffff;" parent="1" vertex="1">
          <mxGeometry x="730" y="570" width="90" height="50" as="geometry" />
        </mxCell>
        <mxCell id="37Pm9QDbZJrlRPkNdoVS-40" value="请求通过" style="ellipse;whiteSpace=wrap;html=1;fillColor=#d5e8d4;strokeColor=#82b366;" parent="1" vertex="1">
          <mxGeometry x="140" y="415" width="90" height="50" as="geometry" />
        </mxCell>
        <mxCell id="37Pm9QDbZJrlRPkNdoVS-41" value="否" style="edgeStyle=orthogonalEdgeStyle;rounded=0;orthogonalLoop=1;jettySize=auto;html=1;fontColor=#006633;entryX=0.5;entryY=1;entryDx=0;entryDy=0;" parent="1" source="37Pm9QDbZJrlRPkNdoVS-43" target="37Pm9QDbZJrlRPkNdoVS-40" edge="1">
          <mxGeometry relative="1" as="geometry">
            <mxPoint x="190" y="490" as="targetPoint" />
            <Array as="points">
              <mxPoint x="190" y="520" />
              <mxPoint x="190" y="465" />
            </Array>
          </mxGeometry>
        </mxCell>
        <mxCell id="37Pm9QDbZJrlRPkNdoVS-42" value="是" style="edgeStyle=orthogonalEdgeStyle;rounded=0;orthogonalLoop=1;jettySize=auto;html=1;entryX=1;entryY=0.5;entryDx=0;entryDy=0;fontColor=#006633;" parent="1" source="37Pm9QDbZJrlRPkNdoVS-43" target="37Pm9QDbZJrlRPkNdoVS-6" edge="1">
          <mxGeometry relative="1" as="geometry" />
        </mxCell>
        <mxCell id="37Pm9QDbZJrlRPkNdoVS-43" value="token是否为空&lt;br&gt;" style="rhombus;whiteSpace=wrap;html=1;" parent="1" vertex="1">
          <mxGeometry x="220" y="500" width="130" height="40" as="geometry" />
        </mxCell>
        <mxCell id="37Pm9QDbZJrlRPkNdoVS-44" value="是" style="edgeStyle=orthogonalEdgeStyle;rounded=0;orthogonalLoop=1;jettySize=auto;html=1;exitX=0.5;exitY=1;exitDx=0;exitDy=0;entryX=1;entryY=0.5;entryDx=0;entryDy=0;fontColor=#006633;" parent="1" source="37Pm9QDbZJrlRPkNdoVS-46" target="37Pm9QDbZJrlRPkNdoVS-52" edge="1">
          <mxGeometry relative="1" as="geometry" />
        </mxCell>
        <mxCell id="37Pm9QDbZJrlRPkNdoVS-45" value="f否" style="edgeStyle=orthogonalEdgeStyle;rounded=0;orthogonalLoop=1;jettySize=auto;html=1;entryX=0.5;entryY=1;entryDx=0;entryDy=0;fontColor=#006633;" parent="1" source="37Pm9QDbZJrlRPkNdoVS-46" target="37Pm9QDbZJrlRPkNdoVS-39" edge="1">
          <mxGeometry x="0.0323" y="5" relative="1" as="geometry">
            <mxPoint as="offset" />
          </mxGeometry>
        </mxCell>
        <mxCell id="37Pm9QDbZJrlRPkNdoVS-46" value="判断用户是否有该接口权限" style="whiteSpace=wrap;html=1;fillColor=#a0522d;strokeColor=#6D1F00;fontColor=#ffffff;rounded=0;" parent="1" vertex="1">
          <mxGeometry x="370" y="670" width="160" height="30" as="geometry" />
        </mxCell>
        <mxCell id="37Pm9QDbZJrlRPkNdoVS-47" value="&lt;span style=&quot;color: rgb(0, 0, 0); font-size: 12px; background-color: rgb(248, 249, 250);&quot;&gt;accessType&lt;/span&gt;&lt;span style=&quot;color: rgb(0, 0, 0);&quot;&gt;=2&lt;/span&gt;" style="edgeLabel;html=1;align=center;verticalAlign=middle;resizable=0;points=[];fontColor=#006633;" parent="1" vertex="1" connectable="0">
          <mxGeometry x="350.0000000000002" y="490.0033333333335" as="geometry">
            <mxPoint x="104" y="-6" as="offset" />
          </mxGeometry>
        </mxCell>
        <mxCell id="37Pm9QDbZJrlRPkNdoVS-48" value="有token" style="edgeStyle=orthogonalEdgeStyle;rounded=0;orthogonalLoop=1;jettySize=auto;html=1;entryX=0;entryY=0.5;entryDx=0;entryDy=0;fontColor=#006633;" parent="1" source="37Pm9QDbZJrlRPkNdoVS-51" target="37Pm9QDbZJrlRPkNdoVS-52" edge="1">
          <mxGeometry relative="1" as="geometry" />
        </mxCell>
        <mxCell id="37Pm9QDbZJrlRPkNdoVS-49" style="edgeStyle=orthogonalEdgeStyle;rounded=0;orthogonalLoop=1;jettySize=auto;html=1;fontColor=#006633;" parent="1" source="37Pm9QDbZJrlRPkNdoVS-51" target="37Pm9QDbZJrlRPkNdoVS-6" edge="1">
          <mxGeometry relative="1" as="geometry" />
        </mxCell>
        <mxCell id="37Pm9QDbZJrlRPkNdoVS-50" value="无token" style="edgeLabel;html=1;align=center;verticalAlign=middle;resizable=0;points=[];fontColor=#006633;" parent="37Pm9QDbZJrlRPkNdoVS-49" vertex="1" connectable="0">
          <mxGeometry x="-0.4286" y="-1" relative="1" as="geometry">
            <mxPoint as="offset" />
          </mxGeometry>
        </mxCell>
        <mxCell id="37Pm9QDbZJrlRPkNdoVS-51" value="添加接口数据到redis缓存" style="rounded=0;whiteSpace=wrap;html=1;fillColor=#a0522d;strokeColor=#6D1F00;fontColor=#ffffff;" parent="1" vertex="1">
          <mxGeometry x="150" y="670" width="160" height="30" as="geometry" />
        </mxCell>
        <mxCell id="37Pm9QDbZJrlRPkNdoVS-52" value="请求通过" style="ellipse;whiteSpace=wrap;html=1;fillColor=#d5e8d4;strokeColor=#82b366;" parent="1" vertex="1">
          <mxGeometry x="290" y="770" width="90" height="50" as="geometry" />
        </mxCell>
        <mxCell id="_hgOmqLut-VNM2K9YIlD-2" style="edgeStyle=orthogonalEdgeStyle;rounded=0;orthogonalLoop=1;jettySize=auto;html=1;entryX=0.5;entryY=0;entryDx=0;entryDy=0;" edge="1" parent="1" source="_hgOmqLut-VNM2K9YIlD-1" target="37Pm9QDbZJrlRPkNdoVS-43">
          <mxGeometry relative="1" as="geometry" />
        </mxCell>
        <mxCell id="_hgOmqLut-VNM2K9YIlD-1" value="accessType判断" style="rhombus;whiteSpace=wrap;html=1;" vertex="1" parent="1">
          <mxGeometry x="365" y="420" width="130" height="40" as="geometry" />
        </mxCell>
        <mxCell id="_hgOmqLut-VNM2K9YIlD-3" value="&lt;span style=&quot;border-color: var(--border-color); color: rgb(0, 0, 0); font-family: Helvetica; font-size: 12px; font-style: normal; font-variant-ligatures: normal; font-variant-caps: normal; font-weight: 400; letter-spacing: normal; orphans: 2; text-align: center; text-indent: 0px; text-transform: none; widows: 2; word-spacing: 0px; -webkit-text-stroke-width: 0px; text-decoration-style: initial; text-decoration-color: initial; background-color: rgb(248, 249, 250);&quot;&gt;accessType&lt;/span&gt;&lt;span style=&quot;color: rgb(0, 0, 0); font-family: Helvetica; font-size: 11px; font-style: normal; font-variant-ligatures: normal; font-variant-caps: normal; font-weight: 400; letter-spacing: normal; orphans: 2; text-align: center; text-indent: 0px; text-transform: none; widows: 2; word-spacing: 0px; -webkit-text-stroke-width: 0px; background-color: rgb(255, 255, 255); text-decoration-style: initial; text-decoration-color: initial; float: none; display: inline !important;&quot;&gt;=3&lt;/span&gt;" style="text;whiteSpace=wrap;html=1;" vertex="1" parent="1">
          <mxGeometry x="280" y="465" width="80" height="10" as="geometry" />
        </mxCell>
      </root>
    </mxGraphModel>
  </diagram>
</mxfile>
